# xmcd
#
# Track frame offsets:
#	150
#	13654
#	31004
#	50189
#	65298
#	83105
#	101237
#	120457
#	135825
#	151536
#	165040
#	182390
#	201575
#	216684
#	234491
#	252623
#	271843
#	287211
#
# Disc length: 4038 seconds
#
# Revision: 1
# Processed by: cddbd v1.5.1PL2 Copyright (c) Steve Scherf et al.
# Submitted via: audiograbber 1.83.01
#
DISCID=f50fc412
DTITLE=Pop Hits Monthly - PHC0602
DYEAR=2006
DGENRE=Karaoke
TTITLE0=Miranda Lambert - Kerosene
TTITLE1=Trisha Yearwood - Trying To Love You
TTITLE2=Keith Urban - Tonight I Wanna Cry
TTITLE3=Kenny Chesney - Living In Fast Forward
TTITLE4=Lee Ann Womack - Twenty Years And Two Husbands Ago
TTITLE5=Martina McBride - Help Me Make It Through The Night
TTITLE6=Jerry Reid - Missing An Angel
TTITLE7=Trent Tomlinson - Drunker Than Me
TTITLE8=Josh Turner - Your Man
TTITLE9=Miranda Lambert - Vocal
TTITLE10=Trisha Yearwood - Vocal
TTITLE11=Keith Urban - Vocal
TTITLE12=Kenny Chesney - Vocal
TTITLE13=Lee Ann Womack - Vocal
TTITLE14=Martina McBride - Vocal
TTITLE15=Jerry Reid - Vocal
TTITLE16=Trent Tomlinson - Vocal
TTITLE17=Josh Turner - Vocal
EXTD=
EXTT0=
EXTT1=
EXTT2=
EXTT3=
EXTT4=
EXTT5=
EXTT6=
EXTT7=
EXTT8=
EXTT9=
EXTT10=
EXTT11=
EXTT12=
EXTT13=
EXTT14=
EXTT15=
EXTT16=
EXTT17=
PLAYORDER=
